<svg id="ART" xmlns="http://www.w3.org/2000/svg" xmlns:xlink="http://www.w3.org/1999/xlink" viewBox="0 0 48 48"><defs><style>.cls-1{fill:url(#linear-gradient);}.cls-2{fill:url(#linear-gradient-2);}.cls-3{fill:url(#linear-gradient-3);}.cls-4{fill:url(#linear-gradient-4);}.cls-5{fill:url(#linear-gradient-5);}.cls-6{fill:url(#linear-gradient-6);}.cls-7{fill:url(#linear-gradient-7);}.cls-8{fill:url(#linear-gradient-8);}.cls-9{fill:url(#linear-gradient-9);}</style><linearGradient id="linear-gradient" x1="35.33" y1="77.95" x2="35.33" y2="5.08" gradientUnits="userSpaceOnUse"><stop offset="0" stop-color="#5eead4"/><stop offset="0.52" stop-color="#14b8a6"/><stop offset="1" stop-color="#0d9488"/></linearGradient><linearGradient id="linear-gradient-2" x1="34.69" y1="104.75" x2="34.69" y2="-5.1" xlink:href="#linear-gradient"/><linearGradient id="linear-gradient-3" x1="-9.67" y1="77.95" x2="-9.67" y2="5.08" gradientTransform="matrix(-1, 0, 0, 1, 3, 0)" xlink:href="#linear-gradient"/><linearGradient id="linear-gradient-4" x1="-10.31" y1="104.75" x2="-10.31" y2="-5.1" gradientTransform="matrix(-1, 0, 0, 1, 3, 0)" xlink:href="#linear-gradient"/><linearGradient id="linear-gradient-5" x1="24" y1="22.97" x2="24" y2="-1.63" gradientUnits="userSpaceOnUse"><stop offset="0" stop-color="#fff"/><stop offset="0.52" stop-color="#ccfbf1"/><stop offset="1" stop-color="#99f6e4"/></linearGradient><linearGradient id="linear-gradient-6" x1="19.3" y1="35.89" x2="19.3" y2="3.19" xlink:href="#linear-gradient"/><linearGradient id="linear-gradient-7" x1="24.26" y1="30.65" x2="24.26" y2="-1.72" xlink:href="#linear-gradient-5"/><linearGradient id="linear-gradient-8" x1="28.7" y1="35.89" x2="28.7" y2="3.19" xlink:href="#linear-gradient"/><linearGradient id="linear-gradient-9" x1="24" y1="36.11" x2="24" y2="-18.74" gradientUnits="userSpaceOnUse"><stop offset="0" stop-color="#0f766e"/><stop offset="0.56" stop-color="#115e59"/><stop offset="1" stop-color="#134e4a"/></linearGradient></defs><title>Aegis - Family AI Protection</title><path class="cls-1" d="M43,18.65a8.12,8.12,0,0,0-1.18,2.27l-1.38,4.13a8.21,8.21,0,0,1-2,3.21l-5.89,5.89a.23.23,0,0,1-.39-.16V30.57a1.1,1.1,0,0,0-1.61-1,1.78,1.78,0,0,0-.64.63L27,35.08a9.28,9.28,0,0,0-1.2,6.3L26.4,45h9.82L36,44.49a2.64,2.64,0,0,1,.37-2.39l6.22-8.51A12.26,12.26,0,0,0,45,26.36V19.29A1.11,1.11,0,0,0,43,18.65Z"/><path class="cls-2" d="M39.38,38,39,27.64h0a8.21,8.21,0,0,1-.55.62l-5.89,5.89a.23.23,0,0,1-.39-.16v1.88a4.22,4.22,0,0,1-.65,2.25l-1,1.55A3.43,3.43,0,0,0,30,41.5V45h6.22L36,44.49a2.64,2.64,0,0,1,.37-2.39Z"/><path class="cls-3" d="M5,18.65A8.12,8.12,0,0,1,6.2,20.92l1.38,4.13a8.21,8.21,0,0,0,2,3.21l5.89,5.89a.23.23,0,0,0,.39-.16V30.57a1.1,1.1,0,0,1,1.61-1,1.78,1.78,0,0,1,.64.63L21,35.08a9.28,9.28,0,0,1,1.2,6.3L21.6,45H11.78l.17-.51a2.64,2.64,0,0,0-.37-2.39L5.36,33.59A12.26,12.26,0,0,1,3,26.36V19.29A1.11,1.11,0,0,1,5,18.65Z"/><path class="cls-4" d="M8.62,38,9,27.64H9a8.21,8.21,0,0,0,.55.62l5.89,5.89a.23.23,0,0,0,.39-.16v1.88a4.22,4.22,0,0,0,.65,2.25l1,1.55A3.43,3.43,0,0,1,18,41.5V45H11.78l.17-.51a2.64,2.64,0,0,0-.37-2.39Z"/><path class="cls-5" d="M28.07,6.16a17.1,17.1,0,0,1-3.48-1.67,1.1,1.1,0,0,0-1.17,0,17.1,17.1,0,0,1-3.48,1.67,15.84,15.84,0,0,1-5.63.95,1.11,1.11,0,0,0-1.17,1.1V19.74a8.86,8.86,0,0,0,4.43,7.67l2.15,1.24a8.57,8.57,0,0,0,8.57,0l2.15-1.24a8.86,8.86,0,0,0,4.43-7.67V8.21a1.11,1.11,0,0,0-1.17-1.1A15.84,15.84,0,0,1,28.07,6.16Z"/><path class="cls-6" d="M14.6,17.06v7.56a8.85,8.85,0,0,0,3,2.8l2.15,1.24A8.57,8.57,0,0,0,24,29.8V17.06Z"/><path class="cls-7" d="M33.7,7.11h-.55a16.25,16.25,0,0,1-5.07-1,17.1,17.1,0,0,1-3.48-1.67,1,1,0,0,0-1.09,0A17.1,17.1,0,0,1,20,6.16a16.26,16.26,0,0,1-5.07,1h-.58a1.12,1.12,0,0,0-.72.25L20,7.78A4.23,4.23,0,0,1,24,12V29.8a8.57,8.57,0,0,0,4.28-1.15l2.15-1.24a8.86,8.86,0,0,0,4.43-7.67V8.21A1.11,1.11,0,0,0,33.7,7.11Z"/><path class="cls-8" d="M33.4,7.1a16,16,0,0,1-5.33-.94,17.1,17.1,0,0,1-3.48-1.67A1.1,1.1,0,0,0,24,4.32h0V17.06h9.4Z"/><path class="cls-9" d="M34.8,6.08h-.51A17.8,17.8,0,0,1,28.49,5a18.88,18.88,0,0,1-3.84-1.84,1.21,1.21,0,0,0-1.3,0A18.88,18.88,0,0,1,19.51,5a17.81,17.81,0,0,1-5.8,1.05h-.45A1.23,1.23,0,0,0,12,7.3V20a9.78,9.78,0,0,0,4.89,8.47l2.37,1.37a9.46,9.46,0,0,0,9.46,0l2.37-1.37A9.78,9.78,0,0,0,36,20V7.3A1.22,1.22,0,0,0,34.8,6.08ZM32,20a5.77,5.77,0,0,1-2.88,5l-2.37,1.37a5.45,5.45,0,0,1-5.45,0L18.9,25A5.77,5.77,0,0,1,16,20V11.26a1.52,1.52,0,0,1,1.25-1.5,23.52,23.52,0,0,0,3.57-.95,23.77,23.77,0,0,0,2.56-1.06,1.38,1.38,0,0,1,1.22,0,23.79,23.79,0,0,0,2.56,1.07,23.52,23.52,0,0,0,3.57.95A1.52,1.52,0,0,1,32,11.26Z"/></svg>
