<svg viewBox="0 0 48 48" xmlns="http://www.w3.org/2000/svg">
  <defs>
    <linearGradient id="lock-gradient" x1="0%" y1="0%" x2="0%" y2="100%">
      <stop offset="0%" stop-color="#60a5fa"/>
      <stop offset="50%" stop-color="#3b82f6"/>
      <stop offset="100%" stop-color="#2563eb"/>
    </linearGradient>
    <linearGradient id="accent-gradient" x1="0%" y1="0%" x2="100%" y2="100%">
      <stop offset="0%" stop-color="#93c5fd"/>
      <stop offset="100%" stop-color="#60a5fa"/>
    </linearGradient>
  </defs>
  <!-- Lock body and shackle -->
  <path d="M40,18H16V13a7,7,0,0,1,7-7h2a7.1,7.1,0,0,1,5,2.1,2,2,0,0,0,2.2.5h.1a1.9,1.9,0,0,0,.6-3.1A10.9,10.9,0,0,0,25,2H23A11,11,0,0,0,12,13v5H8a2,2,0,0,0-2,2V44a2,2,0,0,0,2,2H40a2,2,0,0,0,2,2V20A2,2,0,0,0,40,18ZM38,42H10V22H38Z" fill="url(#lock-gradient)"/>
  <!-- Terminal prompt arrow -->
  <path d="M15,40a2,2,0,0,1-1.3-3.5L19,32l-5.3-4.5a2,2,0,0,1,2.6-3l7,6a2,2,0,0,1,0,3l-7,6A1.9,1.9,0,0,1,15,40Z" fill="url(#accent-gradient)"/>
  <!-- Terminal cursor -->
  <path d="M33,38H27a2,2,0,0,1,0-4h6a2,2,0,0,1,0,4Z" fill="url(#accent-gradient)"/>
</svg>
